# xmcd
#
# Track frame offsets:
# 150
# 14919
# 30682
# 43792
# 62322
# 75335
# 88781
# 102559
# 121086
# 142796
# 153323
# 171367
# 186521
# 198657
#
# Disc length: 2975 seconds
#
#
# Revision: 0
# Processed by: cddbd v1.5.2PL0 Copyright (c) Steve Scherf et al.
# Submitted via: FreeRIP 2.96 
#
DISCID=ba0b9d0e
DTITLE=Lucas en Gea - Country
DYEAR=2009
DGENRE=Country
TTITLE0=Happy op de prairie (intro)
TTITLE1=De wind in de zeilen
TTITLE2=Brief zonder woorden
TTITLE3=Houden van dat is geen zonde
TTITLE4=In jouw armen voel ik me thuis
TTITLE5=Het noodlot
TTITLE6=Me oh my
TTITLE7=Chromen cowboys
TTITLE8=Zomaar door de week een bosje bloemen
TTITLE9=Ga met me mee naar 't platteland
TTITLE10=Laat me dromen
TTITLE11=Mi corazon
TTITLE12=Laat maar
TTITLE13=Country medley (album versie)
EXTD=
EXTT0=
EXTT1=
EXTT2=
EXTT3=
EXTT4=
EXTT5=
EXTT6=
EXTT7=
EXTT8=
EXTT9=
EXTT10=
EXTT11=
EXTT12=
EXTT13=
PLAYORDER=
